<?xml version="1.0" standalone="no"?>
<!DOCTYPE svg PUBLIC "-//W3C//DTD SVG 20010904//EN"
 "http://www.w3.org/TR/2001/REC-SVG-20010904/DTD/svg10.dtd">
<svg version="1.0" xmlns="http://www.w3.org/2000/svg"
 width="980.000000pt" height="980.000000pt" viewBox="0 0 980.000000 980.000000"
 preserveAspectRatio="xMidYMid meet">
<metadata>
Created by potrace 1.14, written by Peter Selinger 2001-2017
</metadata>
<g transform="translate(0.000000,980.000000) scale(0.100000,-0.100000)"
fill="#000000" stroke="none">
<path d="M4659 9746 c-2 -2 -53 -7 -114 -10 -60 -4 -124 -9 -141 -10 -46 -5
-146 -17 -174 -21 -182 -28 -262 -43 -410 -75 -83 -18 -91 -21 -148 -36 -32
-9 -79 -22 -107 -29 -136 -36 -466 -153 -590 -210 -294 -135 -592 -298 -786
-431 -87 -59 -337 -244 -361 -266 -7 -7 -47 -42 -88 -77 -177 -153 -382 -358
-520 -521 -30 -35 -63 -73 -73 -85 -37 -40 -216 -282 -278 -375 -171 -255
-358 -607 -467 -880 -120 -300 -223 -654 -272 -935 -5 -33 -12 -69 -14 -80 -2
-11 -6 -41 -10 -66 -4 -25 -9 -57 -11 -70 -2 -13 -7 -49 -10 -79 -3 -30 -7
-68 -10 -85 -26 -205 -26 -854 0 -1005 3 -14 7 -47 10 -75 12 -104 16 -131 21
-158 3 -16 7 -38 9 -50 2 -12 6 -42 10 -67 4 -25 11 -61 15 -80 5 -19 12 -49
15 -66 29 -171 176 -658 245 -809 5 -11 28 -65 51 -120 23 -55 79 -172 124
-260 104 -203 118 -229 128 -233 4 -2 7 -8 7 -13 0 -19 162 -268 298 -458 9
-13 22 -28 27 -35 6 -6 26 -31 45 -56 54 -69 62 -79 109 -134 106 -125 164
-187 277 -300 167 -168 211 -207 438 -392 96 -79 362 -263 501 -346 273 -164
693 -357 965 -443 90 -29 205 -64 230 -70 8 -2 49 -12 90 -23 106 -28 251 -59
350 -77 47 -8 96 -17 110 -19 14 -2 52 -7 85 -11 33 -3 74 -8 90 -11 151 -21
303 -29 565 -29 218 0 428 8 485 19 11 2 52 7 90 10 274 27 659 113 970 217
961 322 1813 952 2398 1774 84 118 247 367 247 378 0 3 17 34 39 68 39 66 178
342 220 439 118 276 247 676 295 920 24 125 46 246 50 286 4 27 8 60 11 74 3
14 8 52 11 85 3 33 7 71 10 85 19 113 26 612 11 830 -10 148 -14 187 -38 350
-11 74 -22 146 -24 160 -2 14 -16 81 -30 150 -15 69 -29 134 -31 144 -6 32
-74 265 -106 366 -83 259 -270 678 -405 903 -32 54 -65 110 -73 125 -8 15 -18
29 -22 30 -5 2 -8 7 -8 12 0 10 -98 157 -122 184 -10 11 -18 25 -18 32 0 7 -3
14 -7 16 -5 2 -47 55 -95 118 -201 266 -457 537 -708 750 -36 30 -67 58 -70
61 -16 19 -274 209 -375 277 -356 238 -809 460 -1185 580 -141 46 -396 115
-470 128 -14 3 -52 11 -85 18 -33 8 -82 17 -110 22 -27 4 -57 9 -65 10 -8 2
-35 6 -60 9 -43 5 -66 9 -134 20 -16 2 -66 7 -110 11 -45 3 -92 8 -106 10 -33
6 -606 15 -611 10z"/>
</g>
</svg>
