<svg width="24" height="24" viewBox="0 0 24 24" fill="none" xmlns="http://www.w3.org/2000/svg">
<path d="M18.5708 20C19.8328 20 20.8568 18.977 20.8568 17.714V13.143L21.9998 12L20.8568 10.857V6.286C20.8568 5.023 19.8338 4 18.5708 4M5.429 4C4.166 4 3.143 5.023 3.143 6.286V10.857L2 12L3.143 13.143V17.714C3.143 18.977 4.166 20 5.429 20M7.5 12H7.51M12 12H12.01M16.5 12H16.51M8 12C8 12.2761 7.77614 12.5 7.5 12.5C7.22386 12.5 7 12.2761 7 12C7 11.7239 7.22386 11.5 7.5 11.5C7.77614 11.5 8 11.7239 8 12ZM12.5 12C12.5 12.2761 12.2761 12.5 12 12.5C11.7239 12.5 11.5 12.2761 11.5 12C11.5 11.7239 11.7239 11.5 12 11.5C12.2761 11.5 12.5 11.7239 12.5 12ZM17 12C17 12.2761 16.7761 12.5 16.5 12.5C16.2239 12.5 16 12.2761 16 12C16 11.7239 16.2239 11.5 16.5 11.5C16.7761 11.5 17 11.7239 17 12Z" stroke="black" stroke-width="2" stroke-linecap="round" stroke-linejoin="round"/>
</svg>
