<svg width="24" height="24" viewBox="0 0 24 24" fill="none" xmlns="http://www.w3.org/2000/svg">
<path d="M18.5708 20C19.8328 20 20.8568 18.977 20.8568 17.714V13.143L21.9998 12L20.8568 10.857V6.286C20.8568 5.023 19.8338 4 18.5708 4M5.429 4C4.166 4 3.143 5.023 3.143 6.286V10.857L2 12L3.143 13.143V17.714C3.143 18.977 4.166 20 5.429 20M7.5 12L9.93431 14.4343C10.1323 14.6323 10.2313 14.7313 10.3455 14.7684C10.4459 14.8011 10.5541 14.8011 10.6545 14.7684C10.7687 14.7313 10.8677 14.6323 11.0657 14.4343L16.5 9" stroke="black" stroke-width="2" stroke-linecap="round" stroke-linejoin="round"/>
</svg>
