<svg width="24" height="24" viewBox="0 0 24 24" fill="none" xmlns="http://www.w3.org/2000/svg">
<path d="M12 8.99994L4.06386 14.1584C3.37601 14.6055 3.03209 14.8291 2.91297 15.1126C2.80888 15.3603 2.80888 15.6396 2.91297 15.8873M12 8.99994L19.9361 14.1584C20.624 14.6055 20.9679 14.8291 21.087 15.1126C21.1911 15.3603 21.1911 15.6396 21.087 15.8873M12 8.99994V2.49994M12 14.9999L4.06386 9.84145C3.37601 9.39435 3.03209 9.1708 2.91297 8.8873C2.80888 8.63955 2.80888 8.36033 2.91297 8.11258M12 14.9999L19.9361 9.84145C20.624 9.39435 20.9679 9.1708 21.087 8.8873C21.1911 8.63955 21.1911 8.36033 21.087 8.11258M12 14.9999V21.4999M21.272 15.9732L12.872 21.4332C12.5564 21.6383 12.3985 21.7409 12.2285 21.7808C12.0782 21.8161 11.9218 21.8161 11.7715 21.7808C11.6015 21.7409 11.4436 21.6383 11.128 21.4332L2.72802 15.9732C2.46201 15.8002 2.32901 15.7138 2.23265 15.5985C2.14735 15.4964 2.08327 15.3783 2.04417 15.2512C2 15.1075 2 14.9489 2 14.6316V9.36824C2 9.05098 2 8.89235 2.04417 8.74871C2.08327 8.62155 2.14735 8.50348 2.23265 8.4014C2.32901 8.28608 2.46201 8.19963 2.72802 8.02673L11.128 2.56673C11.4436 2.36157 11.6015 2.259 11.7715 2.21909C11.9218 2.18381 12.0782 2.18381 12.2285 2.21909C12.3985 2.259 12.5564 2.36157 12.872 2.56673L21.272 8.02673C21.538 8.19963 21.671 8.28608 21.7674 8.4014C21.8527 8.50348 21.9167 8.62155 21.9558 8.74871C22 8.89235 22 9.05098 22 9.36824V14.6316C22 14.9489 22 15.1075 21.9558 15.2512C21.9167 15.3783 21.8527 15.4964 21.7674 15.5985C21.671 15.7138 21.538 15.8002 21.272 15.9732Z" stroke="black" stroke-width="2" stroke-linecap="round" stroke-linejoin="round"/>
</svg>
