<svg width="24" height="24" viewBox="0 0 24 24" fill="none" xmlns="http://www.w3.org/2000/svg">
<path d="M9.99999 13C10.4294 13.5741 10.9773 14.0491 11.6065 14.3929C12.2357 14.7367 12.9315 14.9411 13.6466 14.9923C14.3618 15.0435 15.0796 14.9403 15.7513 14.6897C16.4231 14.4392 17.0331 14.047 17.54 13.54L20.54 10.54C21.4508 9.59695 21.9547 8.33394 21.9434 7.02296C21.932 5.71198 21.4061 4.45791 20.4791 3.53087C19.552 2.60383 18.298 2.07799 16.987 2.0666C15.676 2.0552 14.413 2.55918 13.47 3.46997L11.75 5.17997M14 11C13.5705 10.4258 13.0226 9.95078 12.3934 9.60703C11.7642 9.26327 11.0685 9.05885 10.3533 9.00763C9.63819 8.95641 8.9204 9.0596 8.24864 9.31018C7.57688 9.56077 6.96687 9.9529 6.45999 10.46L3.45999 13.46C2.5492 14.403 2.04522 15.666 2.05662 16.977C2.06801 18.288 2.59385 19.542 3.52089 20.4691C4.44793 21.3961 5.702 21.9219 7.01298 21.9333C8.32396 21.9447 9.58697 21.4408 10.53 20.53L12.24 18.82" stroke="black" stroke-width="2" stroke-linecap="round" stroke-linejoin="round"/>
</svg>
