<svg width="24" height="24" viewBox="0 0 24 24" fill="none" xmlns="http://www.w3.org/2000/svg">
<style type="text/css">
	.st0{fill:none;stroke:#000000;stroke-linecap:round;stroke-linejoin:round;}
	.st1{fill-rule:evenodd;clip-rule:evenodd;fill:none;stroke:#000000;stroke-miterlimit:10;}
</style>
<path class="st0" d="M0,0"/>
<path id="Path-3" class="st1" d="M5.1,11.1c4.3-1.9,7.2-3.1,8.6-3.7c4.1-1.7,4.9-2,5.5-2c0.1,0,0.4,0,0.6,0.2
	c0.1,0.1,0.2,0.3,0.2,0.4s0,0.4,0,0.6c-0.2,2.3-1.2,8-1.7,10.6c-0.2,1.1-0.6,1.5-1,1.5c-0.9,0.1-1.5-0.6-2.3-1.1
	c-1.3-0.8-2-1.4-3.3-2.2c-1.5-1-0.5-1.5,0.3-2.3c0.2-0.2,4-3.7,4.1-4c0,0,0-0.2-0.1-0.3c-0.1-0.1-0.2-0.1-0.3,0
	c-0.1,0-2.2,1.4-6.2,4.1c-0.6,0.4-1.1,0.6-1.6,0.6c-0.5,0-1.5-0.3-2.3-0.5c-0.9-0.3-1.7-0.5-1.6-1C4,11.6,4.4,11.4,5.1,11.1z"/>
</svg>
